<svg xmlns="http://www.w3.org/2000/svg" width="100" height="100" viewBox="0 0 100 100">
  <path d="M50,10 C27.9,10 10,27.9 10,50 C10,72.1 27.9,90 50,90 C72.1,90 90,72.1 90,50 C90,27.9 72.1,10 50,10 Z M50,80 C33.4,80 20,66.6 20,50 C20,33.4 33.4,20 50,20 C66.6,20 80,33.4 80,50 C80,66.6 66.6,80 50,80 Z" fill="#4C8AF5"/>
  <path d="M50,30 C44.5,30 40,34.5 40,40 C40,45.5 44.5,50 50,50 C55.5,50 60,45.5 60,40 C60,34.5 55.5,30 50,30 Z" fill="#4C8AF5"/>
  <path d="M30,50 C30,44.5 34.5,40 40,40 C45.5,40 50,44.5 50,50 C50,55.5 45.5,60 40,60 C34.5,60 30,55.5 30,50 Z" fill="#4C8AF5"/>
  <path d="M70,50 C70,44.5 65.5,40 60,40 C54.5,40 50,44.5 50,50 C50,55.5 54.5,60 60,60 C65.5,60 70,55.5 70,50 Z" fill="#4C8AF5"/>
</svg>
